<svg width="57" height="57" viewBox="0 0 57 57" fill="none" xmlns="http://www.w3.org/2000/svg">
<path d="M40.0694 18.8561L30.6413 28.2842L40.0694 37.7123C40.3819 38.0248 40.5575 38.4488 40.5575 38.8908C40.5575 39.3328 40.3819 39.7567 40.0694 40.0693C39.7568 40.3819 39.3329 40.5574 38.8909 40.5574C38.4488 40.5574 38.0249 40.3819 37.7124 40.0693L28.2843 30.6412L18.8562 40.0693C18.5436 40.3819 18.1197 40.5574 17.6777 40.5574C17.2356 40.5574 16.8117 40.3819 16.4992 40.0693C16.1866 39.7567 16.011 39.3328 16.011 38.8908C16.011 38.4488 16.1866 38.0248 16.4992 37.7123L25.9272 28.2842L16.4992 18.8561C16.1866 18.5435 16.011 18.1196 16.011 17.6776C16.011 17.2355 16.1866 16.8116 16.4992 16.4991C16.8117 16.1865 17.2356 16.0109 17.6777 16.0109C18.1197 16.0109 18.5436 16.1865 18.8562 16.4991L28.2843 25.9272L37.7124 16.4991C38.0249 16.1865 38.4488 16.0109 38.8909 16.0109C39.3329 16.0109 39.7568 16.1865 40.0694 16.4991C40.3819 16.8116 40.5575 17.2355 40.5575 17.6776C40.5575 18.1196 40.3819 18.5435 40.0694 18.8561Z" fill="white"/>
</svg>
