<svg width="140" height="65" viewBox="0 0 140 65" fill="none" xmlns="http://www.w3.org/2000/svg">
<path d="M3.636 24.084H18.216V27H3.636V24.084ZM25.6112 0.971998H41.0552V4.32H29.1032V12.636H39.5792V15.948H29.1032V27H25.6112V0.971998ZM45.3496 12.096H48.6976V27H45.3496V12.096ZM45.0976 6.696C45.0976 6.168 45.3016 5.724 45.7096 5.364C46.1416 5.004 46.6096 4.824 47.1136 4.824C47.6176 4.824 48.0616 5.004 48.4456 5.364C48.8536 5.724 49.0576 6.168 49.0576 6.696C49.0576 7.248 48.8536 7.704 48.4456 8.064C48.0616 8.4 47.6176 8.568 47.1136 8.568C46.6096 8.568 46.1416 8.388 45.7096 8.028C45.3016 7.668 45.0976 7.224 45.0976 6.696ZM55.9302 5.544H59.2782V12.168H63.3822V14.796H59.2782V27H55.9302V14.796H53.1942V12.168H55.9302V5.544ZM70.4157 12.096L70.7037 15.732L70.5597 15.156C71.0397 14.052 71.8197 13.176 72.8997 12.528C73.9797 11.856 75.2277 11.52 76.6437 11.52C78.0597 11.52 79.2117 11.94 80.0997 12.78C81.0117 13.596 81.4797 14.664 81.5037 15.984V27H78.1197V17.172C78.0957 16.356 77.8557 15.696 77.3997 15.192C76.9677 14.664 76.2837 14.4 75.3477 14.4C74.4837 14.4 73.7037 14.64 73.0077 15.12C72.3117 15.6 71.7597 16.26 71.3517 17.1C70.9677 17.94 70.7757 18.912 70.7757 20.016V27H67.4277V12.096H70.4157ZM94.2382 27.36C92.5342 27.36 91.0702 27.024 89.8462 26.352C88.6222 25.656 87.6742 24.72 87.0022 23.544C86.3542 22.344 86.0302 20.976 86.0302 19.44C86.0302 17.976 86.4022 16.644 87.1462 15.444C87.8902 14.244 88.8862 13.284 90.1342 12.564C91.3822 11.844 92.7742 11.484 94.3102 11.484C96.2782 11.484 97.9102 12.06 99.2062 13.212C100.502 14.364 101.378 15.948 101.834 17.964L89.5582 22.284L88.7662 20.304L98.8462 16.632L98.1262 17.1C97.8382 16.308 97.3582 15.624 96.6862 15.048C96.0142 14.448 95.1382 14.148 94.0582 14.148C93.1462 14.148 92.3302 14.376 91.6102 14.832C90.8902 15.264 90.3262 15.864 89.9182 16.632C89.5102 17.4 89.3062 18.276 89.3062 19.26C89.3062 20.292 89.5222 21.204 89.9542 21.996C90.3862 22.764 90.9742 23.376 91.7182 23.832C92.4862 24.264 93.3502 24.48 94.3102 24.48C94.9582 24.48 95.5822 24.36 96.1822 24.12C96.8062 23.88 97.3822 23.568 97.9102 23.184L99.4582 25.668C98.7142 26.172 97.8742 26.58 96.9382 26.892C96.0262 27.204 95.1262 27.36 94.2382 27.36ZM110.205 27.288C109.149 27.288 108.117 27.108 107.109 26.748C106.125 26.364 105.309 25.8 104.661 25.056L106.065 23.112C106.689 23.712 107.325 24.168 107.973 24.48C108.645 24.768 109.305 24.912 109.953 24.912C110.433 24.912 110.877 24.852 111.285 24.732C111.693 24.612 112.017 24.42 112.257 24.156C112.521 23.868 112.653 23.484 112.653 23.004C112.653 22.476 112.473 22.056 112.113 21.744C111.777 21.432 111.333 21.18 110.781 20.988C110.253 20.796 109.689 20.616 109.089 20.448C107.865 20.04 106.929 19.476 106.281 18.756C105.633 18.036 105.309 17.16 105.309 16.128C105.309 15.336 105.501 14.604 105.885 13.932C106.293 13.236 106.881 12.672 107.649 12.24C108.441 11.808 109.413 11.592 110.565 11.592C111.597 11.592 112.521 11.724 113.337 11.988C114.153 12.228 114.921 12.636 115.641 13.212L114.309 15.3C113.877 14.844 113.361 14.508 112.761 14.292C112.161 14.076 111.621 13.956 111.141 13.932C110.733 13.908 110.337 13.968 109.953 14.112C109.593 14.256 109.293 14.46 109.053 14.724C108.813 14.988 108.693 15.3 108.693 15.66C108.693 16.164 108.861 16.572 109.197 16.884C109.533 17.196 109.965 17.448 110.493 17.64C111.045 17.808 111.585 17.988 112.113 18.18C112.857 18.396 113.517 18.684 114.093 19.044C114.669 19.404 115.125 19.848 115.461 20.376C115.821 20.904 116.001 21.564 116.001 22.356C116.001 23.244 115.785 24.072 115.353 24.84C114.945 25.584 114.309 26.184 113.445 26.64C112.605 27.072 111.525 27.288 110.205 27.288ZM124.865 27.288C123.809 27.288 122.777 27.108 121.769 26.748C120.785 26.364 119.969 25.8 119.321 25.056L120.725 23.112C121.349 23.712 121.985 24.168 122.633 24.48C123.305 24.768 123.965 24.912 124.613 24.912C125.093 24.912 125.537 24.852 125.945 24.732C126.353 24.612 126.677 24.42 126.917 24.156C127.181 23.868 127.313 23.484 127.313 23.004C127.313 22.476 127.133 22.056 126.773 21.744C126.437 21.432 125.993 21.18 125.441 20.988C124.913 20.796 124.349 20.616 123.749 20.448C122.525 20.04 121.589 19.476 120.941 18.756C120.293 18.036 119.969 17.16 119.969 16.128C119.969 15.336 120.161 14.604 120.545 13.932C120.953 13.236 121.541 12.672 122.309 12.24C123.101 11.808 124.073 11.592 125.225 11.592C126.257 11.592 127.181 11.724 127.997 11.988C128.813 12.228 129.581 12.636 130.301 13.212L128.969 15.3C128.537 14.844 128.021 14.508 127.421 14.292C126.821 14.076 126.281 13.956 125.801 13.932C125.393 13.908 124.997 13.968 124.613 14.112C124.253 14.256 123.953 14.46 123.713 14.724C123.473 14.988 123.353 15.3 123.353 15.66C123.353 16.164 123.521 16.572 123.857 16.884C124.193 17.196 124.625 17.448 125.153 17.64C125.705 17.808 126.245 17.988 126.773 18.18C127.517 18.396 128.177 18.684 128.753 19.044C129.329 19.404 129.785 19.848 130.121 20.376C130.481 20.904 130.661 21.564 130.661 22.356C130.661 23.244 130.445 24.072 130.013 24.84C129.605 25.584 128.969 26.184 128.105 26.64C127.265 27.072 126.185 27.288 124.865 27.288ZM22.86 61.056C22.428 61.344 21.84 61.668 21.096 62.028C20.352 62.388 19.476 62.688 18.468 62.928C17.484 63.168 16.404 63.288 15.228 63.288C13.212 63.264 11.388 62.904 9.756 62.208C8.148 61.512 6.78 60.564 5.652 59.364C4.524 58.164 3.648 56.784 3.024 55.224C2.424 53.64 2.124 51.96 2.124 50.184C2.124 48.24 2.436 46.452 3.06 44.82C3.708 43.164 4.608 41.736 5.76 40.536C6.912 39.312 8.268 38.364 9.828 37.692C11.412 37.02 13.14 36.684 15.012 36.684C16.572 36.684 17.988 36.9 19.26 37.332C20.532 37.74 21.624 38.232 22.536 38.808L21.132 42.048C20.412 41.568 19.536 41.112 18.504 40.68C17.496 40.248 16.368 40.032 15.12 40.032C13.848 40.032 12.648 40.284 11.52 40.788C10.392 41.292 9.396 42 8.532 42.912C7.668 43.824 6.984 44.892 6.48 46.116C6 47.316 5.76 48.612 5.76 50.004C5.76 51.42 5.976 52.74 6.408 53.964C6.864 55.164 7.5 56.208 8.316 57.096C9.156 57.984 10.164 58.68 11.34 59.184C12.516 59.688 13.836 59.94 15.3 59.94C16.62 59.94 17.796 59.736 18.828 59.328C19.86 58.92 20.712 58.464 21.384 57.96L22.86 61.056ZM27.9121 35.136H31.2601V63H27.9121V35.136ZM41.7687 63.576C40.4247 63.576 39.3087 63.168 38.4207 62.352C37.5567 61.512 37.1007 60.432 37.0527 59.112V48.096H40.4007V57.924C40.4487 58.74 40.6767 59.4 41.0847 59.904C41.5167 60.408 42.1887 60.672 43.1007 60.696C43.9407 60.696 44.6847 60.456 45.3327 59.976C46.0047 59.472 46.5447 58.8 46.9527 57.96C47.3607 57.096 47.5647 56.124 47.5647 55.044V48.096H50.9127V63H47.8527L47.5647 59.328L47.7447 59.976C47.4567 60.672 47.0127 61.296 46.4127 61.848C45.8367 62.376 45.1527 62.796 44.3607 63.108C43.5687 63.42 42.7047 63.576 41.7687 63.576ZM65.7771 63.36C64.4091 63.36 63.1971 63.06 62.1411 62.46C61.1091 61.86 60.2811 61.104 59.6571 60.192L60.0531 59.148V63H56.7051V35.136H60.0171V51.516L59.9091 50.256C60.5091 49.44 61.3611 48.78 62.4651 48.276C63.5931 47.748 64.8411 47.484 66.2091 47.484C67.5531 47.484 68.7771 47.808 69.8811 48.456C70.9851 49.104 71.8611 50.016 72.5091 51.192C73.1811 52.344 73.5171 53.724 73.5171 55.332C73.5171 57.012 73.1571 58.452 72.4371 59.652C71.7411 60.852 70.8051 61.776 69.6291 62.424C68.4531 63.048 67.1691 63.36 65.7771 63.36ZM65.0931 60.516C66.0531 60.516 66.9171 60.288 67.6851 59.832C68.4531 59.376 69.0531 58.764 69.4851 57.996C69.9171 57.204 70.1331 56.304 70.1331 55.296C70.1331 54.336 69.9051 53.472 69.4491 52.704C69.0171 51.912 68.4171 51.288 67.6491 50.832C66.9051 50.376 66.0531 50.148 65.0931 50.148C64.2771 50.148 63.5211 50.304 62.8251 50.616C62.1291 50.928 61.5411 51.36 61.0611 51.912C60.5811 52.44 60.2451 53.064 60.0531 53.784V56.772C60.2451 57.492 60.5691 58.14 61.0251 58.716C61.4811 59.268 62.0571 59.712 62.7531 60.048C63.4491 60.36 64.2291 60.516 65.0931 60.516Z" fill="white"/>
<path d="M10.3075 18.7071C10.4994 18.9027 10.7503 19 11.0011 19C11.252 19 11.5033 18.9022 11.6952 18.7071L18.5313 11.7393C20.4896 9.74277 20.4896 6.4939 18.5313 4.49739C16.5725 2.50041 13.3846 2.50133 11.4263 4.49739L11.0011 4.92983L10.5769 4.49739C8.61719 2.50087 5.43065 2.50087 3.47189 4.49739C2.52291 5.46465 2 6.75052 2 8.1181C2 9.48569 2.52291 10.772 3.47189 11.7388L10.3075 18.7071ZM4.85955 5.91179C5.45677 5.30306 6.24046 4.99961 7.02415 4.99961C7.80783 4.99961 8.59242 5.30352 9.18919 5.91179L10.3075 7.05213C10.4917 7.23944 10.7412 7.34502 11.0011 7.34502C11.2615 7.34502 11.511 7.23944 11.6952 7.05213L12.814 5.91179C14.0084 4.69387 15.9501 4.69525 17.1436 5.91179C18.3371 7.12834 18.3371 9.10833 17.1436 10.3249L11.0011 16.5853L4.85955 10.3249C4.28125 9.73542 3.96237 8.95132 3.96237 8.11856C3.96282 7.28488 4.28125 6.50079 4.85955 5.91179V5.91179Z" fill="white"/>
</svg>
